<?xml version="1.0" encoding="UTF-8" standalone="no"?>
<!-- Created with Inkscape (http://www.inkscape.org/) -->

<svg
   xmlns:dc="http://purl.org/dc/elements/1.1/"
   xmlns:cc="http://creativecommons.org/ns#"
   xmlns:rdf="http://www.w3.org/1999/02/22-rdf-syntax-ns#"
   xmlns:svg="http://www.w3.org/2000/svg"
   xmlns="http://www.w3.org/2000/svg"
   xmlns:sodipodi="http://sodipodi.sourceforge.net/DTD/sodipodi-0.dtd"
   xmlns:inkscape="http://www.inkscape.org/namespaces/inkscape"
   width="166.15057mm"
   height="39.964802mm"
   viewBox="0 0 166.15057 39.964802"
   version="1.1"
   id="svg73"
   inkscape:version="0.92.3 (2405546, 2018-03-11)"
   sodipodi:docname="logo.svg">
  <defs
     id="defs67" />
  <sodipodi:namedview
     id="base"
     pagecolor="#ffffff"
     bordercolor="#666666"
     borderopacity="1.0"
     inkscape:pageopacity="0"
     inkscape:pageshadow="2"
     inkscape:zoom="0.35"
     inkscape:cx="238.12225"
     inkscape:cy="-164.48167"
     inkscape:document-units="mm"
     inkscape:current-layer="g86"
     showgrid="false"
     fit-margin-top="0"
     fit-margin-left="0"
     fit-margin-right="0"
     fit-margin-bottom="0"
     inkscape:window-width="1280"
     inkscape:window-height="744"
     inkscape:window-x="0"
     inkscape:window-y="27"
     inkscape:window-maximized="1" />
  <metadata
     id="metadata70">
    <rdf:RDF>
      <cc:Work
         rdf:about="">
        <dc:format>image/svg+xml</dc:format>
        <dc:type
           rdf:resource="http://purl.org/dc/dcmitype/StillImage" />
        <dc:title></dc:title>
      </cc:Work>
    </rdf:RDF>
  </metadata>
  <g
     inkscape:label="Layer 1"
     inkscape:groupmode="layer"
     id="layer1"
     transform="translate(-12.592059,-19.99228)">
    <g
       id="g86"
       transform="translate(-24.946429,120.95238)">
      <path
         style="fill:#d40000;stroke-width:1"
         d="m 79.923804,-100.9601 -0.829924,0.84646 c -0.456523,0.46573 -1.52673,1.058503 -2.378149,1.316715 -2.831592,0.858747 -4.63282,1.742855 -5.757272,2.827218 -0.612079,0.590257 -1.162048,1.006679 -1.222148,0.925007 -1.441841,-1.959342 -1.574749,-2.893184 -0.531749,-3.737755 0.435372,-0.352541 0.662062,-0.821658 0.544669,-1.12758 -0.162049,-0.422285 -1.122773,-0.556035 -4.959387,-0.690915 -4.890958,-0.17194 -5.618778,-0.10689 -5.618778,0.50281 0,0.538138 4.420898,6.359686 4.997626,6.580996 0.277961,0.106665 1.527114,-0.121345 2.775543,-0.506944 1.248426,-0.385601 2.337265,-0.633611 2.420006,-0.550873 0.23871,0.238712 -2.515076,3.660312 -4.763016,5.917985 -3.350718,3.365228 -4.309295,4.429469 -4.713924,5.233789 -0.217196,0.431745 -0.957884,0.933927 -1.709456,1.159103 -1.138409,0.341074 -1.602786,0.294179 -3.27577,-0.331761 -2.686714,-1.005226 -7.652215,-1.021408 -10.292394,-0.03359 -2.274189,0.850884 -4.88969,3.289337 -6.079216,5.668389 -0.557293,1.114583 -0.757944,1.762442 -0.826306,3.33933 -0.05434,0.333478 -0.09958,0.669165 -0.12454,1.008724 -0.08124,1.105167 -0.04143,2.159542 0.113171,3.152264 0.05588,1.742813 0.251825,2.254194 0.91829,3.387905 1.136582,1.933427 3.758147,4.313438 5.218286,4.737179 0.585872,0.170027 2.923029,0.321731 5.193482,0.336931 3.643861,0.02442 4.331296,-0.06689 5.861141,-0.77928 2.61688,-1.218583 6.007385,-5.411377 6.007385,-7.429005 0,-1.354503 -1.047732,-0.68408 -2.533179,1.620573 -2.528872,3.923522 -3.728797,4.562036 -8.550382,4.550627 -3.937174,-0.0093 -5.41496,-0.601594 -7.369059,-2.952793 -2.049566,-2.46607 -2.318632,-3.138974 -2.283582,-5.710245 0.04105,-3.011135 0.512933,-4.342638 2.078943,-5.868373 2.157766,-2.102279 4.149486,-2.784637 8.591207,-2.942458 4.353716,-0.154694 4.715269,0.04062 3.702099,1.999879 -0.382534,0.739738 -1.0859,1.311955 -2.175061,1.769401 -5.551842,2.331757 -6.065779,2.736676 -6.065779,4.775936 0,1.777735 1.140634,2.987074 3.093351,3.279902 1.826354,0.273878 2.691143,0.0089 3.805452,-1.164786 0.784639,-0.826463 0.852429,-1.110475 0.670244,-2.811198 -0.222086,-2.073203 -0.12962,-2.28342 2.31252,-5.246192 0.968451,-1.174912 1.595134,-1.634009 2.229838,-1.634009 1.089226,0 3.360133,-1.727247 7.65328,-5.820317 1.663044,-1.58554 3.197257,-2.903453 3.590994,-3.093868 0.160663,0.04902 0.40313,0.209851 0.684196,0.444418 0.307875,0.31891 0.682686,0.769852 1.044382,1.273307 0.930836,1.295657 1.750407,1.974723 3.167764,2.623614 2.236867,1.024069 2.524114,1.015327 13.529408,-0.404628 7.337231,-0.946684 8.72364,-0.921493 10.532689,0.190169 0.758822,0.466297 1.659101,0.689481 2.303731,0.636654 0.0371,-0.0024 0.073,-0.0055 0.10697,-0.01085 0.30887,-0.04236 0.548,-0.154538 0.66456,-0.343133 0.32424,-0.524626 -3.39606,-5.89952 -5.127332,-7.407817 -0.785789,-0.684583 -2.556651,-1.787371 -3.935159,-2.450496 -0.964808,-0.464114 -1.595384,-0.749306 -2.293919,-0.937927 l -0.0155,-0.0078 h -0.01241 c -1.024838,-0.272155 -2.207856,-0.337119 -4.816764,-0.436671 -2.811365,-0.107275 -5.858169,-0.0091 -7.751466,0.249598 -1.551247,0.211987 -2.922498,0.309697 -3.258714,0.239778 -0.02143,-0.03722 -0.0416,-0.07582 -0.05891,-0.120922 -0.01635,-0.04258 -0.02548,-0.08222 -0.03617,-0.122473 0.0468,-0.161629 0.186118,-0.376804 0.38654,-0.577226 0.463722,-0.463722 1.575949,-0.628502 5.558317,-0.824238 5.13648,-0.252462 5.689057,-0.363585 5.689057,-1.143084 0,-0.07822 0.01212,-0.150569 0.03669,-0.217041 1.77e-4,-1.66e-4 2.64e-4,-2.64e-4 5.29e-4,-5.29e-4 0.286096,-0.267295 0.62307,-0.438859 1.1529,-0.566375 0.438116,-0.06241 1.001745,-0.09302 1.734262,-0.09302 2.25447,0 2.923852,-0.23614 2.923852,-1.031462 0,-0.825577 -0.664019,-0.946487 -6.73809,-1.227307 z m 35.210766,17.953426 c -1.26546,-0.02674 -2.58622,0.148431 -3.92224,0.545187 -2.1645,0.642787 -5.10188,3.18784 -5.93245,5.140253 -0.8704,2.046023 -1.11334,4.929413 -0.58653,6.960299 0.86478,3.333824 4.38057,6.368735 8.07444,6.969601 3.37534,0.54905 7.54971,-0.684197 9.64438,-2.848922 2.2646,-2.340393 3.25082,-6.442898 2.31923,-9.647473 -1.2653,-4.352481 -5.07732,-7.023431 -9.59683,-7.118945 z m -19.947099,0.399976 c -0.38943,0.02625 -0.601001,0.143242 -0.732772,0.353983 -0.701648,0.250425 -0.421849,0.723543 0.487826,1.588534 0.780706,0.742355 1.022638,1.30946 1.207161,2.872177 5.29e-4,0.123619 0.0021,0.230732 0.0021,0.368451 v 1.752864 c -0.283014,0.802802 -1.223031,0.835845 -3.611666,0.640789 l -2.580203,-0.210841 -0.03307,-0.402558 -0.07286,-1.661398 c -0.01498,-0.340479 -0.02625,-0.623356 -0.03359,-0.877464 0.08834,-1.347118 0.525838,-2.139908 1.380275,-2.581757 0.651338,-0.33682 0.996373,-0.753515 0.926042,-1.118793 -0.0481,-0.249836 -0.21622,-0.394944 -0.858346,-0.480592 -0.274063,-0.06964 -0.619934,-0.09605 -1.055748,-0.07545 -0.702286,-0.02913 -1.635411,-0.04317 -2.958475,-0.04961 -1.106501,-0.0054 -1.949853,-2.65e-4 -2.624646,0.01654 -1.29305,-0.21545 -2.033807,-0.112903 -2.18178,0.291971 -0.07443,0.05115 -0.122939,0.10927 -0.148829,0.176733 -0.116969,0.304814 0.190043,0.815526 0.767395,1.275893 0.932466,0.743521 0.966277,0.884729 1.080556,4.523753 0.06488,2.066067 -0.01791,4.97174 -0.184486,6.456971 -0.267237,2.382922 -0.428562,2.817585 -1.368909,3.696414 -0.814666,0.76137 -0.991309,1.134668 -0.750343,1.584918 0.01884,0.03519 0.04006,0.06803 0.06356,0.09922 0.04843,0.18347 0.177593,0.327983 0.398941,0.412893 0.236506,0.09072 0.73987,0.09941 1.118277,0.01913 0.01043,-0.0021 0.02553,-0.0035 0.03617,-0.0057 0.761479,0.04702 1.880331,0.05949 3.602366,0.05736 1.200901,-0.0016 2.154896,-0.0168 2.912483,-0.05478 1.327663,0.174363 2.032042,0.04682 2.094447,-0.376206 2.4e-5,-1.66e-4 -2.7e-5,-2.64e-4 0,-5.29e-4 0.378436,-0.287901 0.0013,-0.758026 -0.911056,-1.519803 -0.979987,-0.818127 -1.161267,-1.216454 -1.296045,-2.841686 -0.01122,-0.135364 -0.0154,-0.278196 -0.02273,-0.418579 0.0058,-0.159205 0.01072,-0.304086 0.0181,-0.488344 l 0.07545,-1.888773 c 0.09007,-0.35772 0.155869,-0.569489 0.398941,-0.686263 l 2.643767,-0.08681 c 0.0041,-1.38e-4 0.0067,-2.65e-4 0.01085,-5.3e-4 l 2.664436,0.09405 c 0.06023,0.02 0.114009,0.04379 0.164333,0.06976 l 0.108003,0.947745 c 0.226938,1.993204 -0.298852,3.964575 -1.342035,5.031735 -1.235565,1.263965 -1.47078,1.844934 -0.02273,2.103747 0.155106,0.03919 0.348411,0.06528 0.592211,0.07803 0.87063,0.08796 2.119408,0.115385 3.839044,0.117306 1.404594,0.0016 2.372494,-0.0026 3.088694,-0.02376 1.02531,0.122968 1.37961,0.08509 1.57303,-0.188103 0.20941,-0.100816 0.24081,-0.248081 0.24081,-0.464571 0,-0.375108 -0.46436,-1.115663 -1.03197,-1.645893 l -1.03248,-0.964264 v -6.260084 -5.891112 c 0.0638,-0.214887 0.13917,-0.405823 0.22583,-0.579811 l 0.80667,-0.752924 c 0.8474,-0.791589 1.24062,-1.253612 0.9126,-1.526522 -0.0279,-0.31346 -0.52745,-0.418036 -1.51257,-0.321945 -0.7539,-0.05193 -1.78833,-0.07157 -3.165694,-0.08268 -1.01059,-0.0081 -1.84888,-0.0061 -2.533179,0.01291 -0.604552,-0.09368 -1.05631,-0.13716 -1.374077,-0.115756 z m 62.145559,0.02119 c -0.82225,-0.01275 -1.68328,0.03017 -2.57504,0.125055 l -4.25297,-0.0011 -3.48971,-0.0011 c -0.4039,-0.0054 -0.81833,-0.0061 -1.24178,-5.29e-4 l -6.27662,-0.0021 -0.0915,0.644921 c -0.052,0.03365 -0.0806,0.06792 -0.0806,0.102836 0,0.05396 0.0205,0.11467 0.0517,0.17725 -0.005,0.403944 0.19843,0.656378 0.63614,0.7953 1.0469,0.332274 1.37666,1.526418 1.37666,4.989875 0,4.688398 0.0269,4.698357 -5.32681,-1.867585 -2.11076,-2.588707 -3.10039,-3.797909 -4.07727,-4.365625 l -0.29042,-0.30489 h -0.41651 c -0.67357,-0.197154 -1.45019,-0.196329 -2.64325,-0.189138 -2.43103,0.01466 -2.90635,0.109485 -3.00085,0.599448 -0.0702,0.363914 0.27065,0.780159 0.90951,1.110525 1.3421,0.694045 1.56493,2.052461 1.26193,7.700823 -0.28487,5.31029 -0.60781,6.699117 -1.72806,7.433138 -0.90923,0.595746 -1.08289,1.21413 -0.50384,1.793173 0.20753,0.207537 1.731,0.311844 3.69796,0.253215 1.83984,-0.05484 3.53846,-0.105339 3.77497,-0.112139 0.72723,-0.02103 0.5068,-1.661718 -0.2558,-1.903759 -1.53482,-0.48713 -1.72186,-1.050877 -1.72186,-5.185214 0,-3.067225 0.10144,-3.931542 0.46302,-3.931542 0.47098,0 3.79135,3.986335 7.09517,8.518859 1.88012,2.579348 2.5082,2.964635 4.52014,2.772441 l 0.0884,-0.0083 c 0.0212,0.0028 0.0946,0.01175 0.1111,0.01394 0.0932,0.01252 0.19865,-0.009 0.30076,-0.05323 l 0.66559,-0.06356 0.17209,-8.029485 c 0.17137,-8.000122 0.17504,-8.03179 1.01027,-8.70748 0.84886,-0.686721 2.1907,-0.644263 2.94556,0.09302 0.4375,0.427292 0.65652,7.235494 0.34106,10.601939 -0.20855,2.225524 -0.37191,2.687111 -1.23662,3.494876 -1.10297,1.030332 -1.30101,2.184725 -0.43201,2.518193 0.31044,0.119126 1.44439,0.0431 2.51974,-0.168466 0.12603,-0.02479 0.24341,-0.04467 0.36174,-0.06511 0.31911,0.01042 0.64873,0.02048 1.03094,0.03049 0.8248,0.02159 1.32833,0.02973 1.99213,0.04496 1.70807,0.450593 4.61672,0.456914 6.97425,0.0098 5.34603,-1.013854 8.26594,-4.373907 8.34884,-9.607164 0.0324,-2.048541 -0.11432,-2.892967 -0.69246,-3.980637 -0.98334,-1.850012 -2.33567,-3.150047 -4.41265,-4.242634 l -1.72238,-0.906404 -2.3337,-5.29e-4 c -0.59314,-0.07238 -1.20798,-0.116692 -1.84692,-0.126606 z m 40.93342,0.02479 c -0.87527,0.0029 -1.9045,0.05281 -2.95538,0.149344 -1.93879,0.178102 -4.2362,0.213614 -5.10563,0.07855 -1.2037,-0.186995 -6.70471,-0.174234 -9.68571,0.02273 -0.49108,0.03245 -0.25464,1.081223 0.46199,2.050521 l 0.6258,0.846461 c 0.0155,0.08435 0.0262,0.165428 0.0259,0.238228 -1.8e-4,0.03125 -0.007,0.07915 -0.0109,0.118856 l -1.07074,3.141927 c -0.63231,1.854576 -1.34689,3.436358 -1.5875,3.515548 -0.48664,0.160171 -2.10414,-3.196953 -2.82567,-5.864757 -0.42014,-1.553451 -0.40131,-1.69378 0.33435,-2.476852 0.81208,-0.864423 0.98777,-1.324652 0.12506,-1.557012 -0.29021,-0.205433 -0.68755,-0.254534 -1.45159,-0.174665 -0.72603,-0.03555 -1.66008,-0.04278 -2.84944,-0.03256 -1.12715,0.0097 -1.96234,0.02289 -2.6107,0.04651 -0.82237,-0.09769 -1.23651,-0.05887 -1.54874,0.144695 -0.38932,0.0954 -0.49802,0.240837 -0.54208,0.469739 -0.0662,0.343799 0.27675,0.989129 0.76739,1.443839 0.99993,0.926703 3.84891,6.771986 5.44876,11.179162 0.5838,1.608238 1.42966,3.512859 1.87999,4.232817 0.61991,0.991055 0.84989,1.227045 1.63143,1.229381 0.3932,0.05027 0.8311,0.02516 1.19424,-0.06666 l 0.86765,-0.06356 0.9834,-2.752286 c 1.38288,-3.869616 3.99391,-10.418789 4.77128,-11.967744 0.8041,-1.602214 1.99401,-2.235587 3.18276,-1.693955 0.69216,0.31538 1.0317,1.008467 1.15393,3.055112 0.003,0.04806 0.005,0.104425 0.007,0.153995 0.02,0.494318 0.0335,1.054497 0.0419,1.697572 6e-5,0.0048 -6e-5,0.0087 0,0.01344 0.007,0.970002 -0.004,2.094894 -0.0346,3.491775 l -0.11265,5.062741 -1.11777,1.020093 c -1.27086,1.159738 -1.37278,1.565968 -0.51625,2.060856 0.33112,0.191306 0.91144,0.251917 1.28985,0.134876 0.37841,-0.116996 2.08143,-0.166859 3.78427,-0.110588 7.62709,0.252034 9.42372,0.191037 9.92755,-0.337965 0.64815,-0.680569 1.12814,-3.541059 0.87437,-4.689118 -0.0184,-0.209137 -0.0696,-0.327528 -0.16588,-0.391192 -0.55357,-0.709959 -1.40775,-0.334052 -2.13424,0.949815 -0.9782,1.728705 -4.41785,2.340631 -5.38623,0.95808 -0.53467,-0.763355 -0.72166,-3.166105 -0.3266,-4.195609 0.3434,-0.89489 2.19661,-0.675344 3.31091,0.392223 0.78126,0.748496 1.09561,0.86155 1.56683,0.564306 0.32422,-0.204515 0.57832,-0.702852 0.56482,-1.107942 -0.0135,-0.405088 -0.052,-1.67055 -0.0858,-2.811714 -0.0735,-2.482324 -0.65276,-2.937767 -2.06034,-1.620573 -1.65398,1.547775 -2.89657,1.487384 -3.33313,-0.0093 v -1.28314 -1.62264 c 0.14847,-0.446174 0.40391,-0.710115 0.81339,-0.843359 l 0.73432,-0.05271 c 0.27943,-0.01992 0.50275,-0.02775 0.70383,-0.02585 0.87973,0.124595 1.44738,0.609597 2.16628,1.770433 0.65623,1.059611 0.99673,1.158171 1.67173,0.483174 0.32937,-0.329361 0.41102,-1.049195 0.28267,-2.493904 l -0.18035,-2.030884 -1.46296,-0.307475 c -0.43615,-0.09162 -1.15768,-0.135702 -2.03295,-0.132807 z m -123.233305,0.14986 c -1.446395,-0.01111 -3.70409,0.02466 -7.360274,0.0801 -0.768549,0.01164 -1.381334,0.04055 -1.867585,0.09405 -0.934596,-0.05089 -1.197528,0.06362 -1.337903,0.429429 -0.008,0.0209 -0.01056,0.04381 -0.01603,0.06563 -0.174381,0.320193 0.09121,0.804979 0.704869,1.534274 0.660077,0.784463 0.833194,1.145719 0.874882,2.91765 0.0081,0.586496 0.0082,1.327708 0.0057,2.236041 -0.02156,1.967071 -0.165304,4.422516 -0.341064,5.661152 -0.291343,2.053132 -0.495853,2.535978 -1.388546,3.275253 -0.76404,0.632733 -0.981341,1.038456 -0.803569,1.501717 0.21794,0.567939 0.5192,0.61213 2.857706,0.41806 1.451941,-0.120491 3.073046,-0.06604 3.646289,0.122476 0.567616,0.186661 2.270115,0.293621 3.783748,0.23771 4.996416,-0.184561 7.392099,-1.971488 7.394898,-5.514909 5.29e-4,-0.630883 -0.09533,-1.236753 -0.270266,-1.793171 l 0.01447,-0.194821 -0.121957,-0.114205 c -0.378182,-0.989698 -1.021183,-1.790816 -1.845365,-2.231906 -1.051873,-0.562943 -1.099574,-1.069289 -0.180351,-1.901174 0.38004,-0.343934 0.859496,-1.188045 1.065567,-1.875856 0.472935,-1.578515 -0.224512,-3.453836 -1.626256,-4.372859 -0.621131,-0.40723 -0.778293,-0.556135 -3.188954,-0.574643 z m 40.081795,1.547709 c 1.31818,-0.01 2.07438,0.678826 2.92281,2.526462 1.33776,2.913187 0.59145,9.890598 -1.25522,11.737268 -1.24243,1.242446 -3.27098,1.139783 -4.41833,-0.223758 -1.19361,-1.418524 -1.58768,-3.055628 -1.59008,-6.604765 -0.003,-4.767077 1.148,-7.041647 3.7393,-7.389214 0.21317,-0.02859 0.4132,-0.04456 0.60152,-0.04599 z m 41.60004,0.355018 c 0.047,0.0042 0.0862,0.0066 0.13591,0.01138 3.30214,0.317294 4.92371,2.690628 4.97541,7.283276 0.0365,3.24122 -0.83199,5.504018 -2.48719,6.481775 -0.54162,0.319937 -1.61323,0.682223 -2.38177,0.80512 -1.92709,0.308152 -2.36486,-0.08597 -2.43809,-4.549593 -0.002,-0.870352 0.004,-1.885971 0.0207,-3.088701 l 0.047,-3.418395 c 0.0684,-1.628346 0.17272,-2.814696 0.2868,-3.028241 0.10735,-0.200938 0.22562,-0.337196 0.40411,-0.422712 l 1.35599,-0.07028 c 0.0303,-0.0016 0.0517,-0.0021 0.0811,-0.0036 z m -84.001072,0.33228 c 1.202791,-0.03859 1.783617,3.141057 0.620633,4.193543 -1.147572,1.038539 -1.435055,0.702688 -1.435055,-1.677416 0,-1.76766 0.120759,-2.293134 0.565859,-2.463933 0.08538,-0.03277 0.168376,-0.04962 0.248563,-0.05219 z m -0.198953,7.23315 c 0.324805,0.01289 0.734219,0.247782 1.248502,0.694531 1.152192,1.0009 1.473137,2.815939 0.788064,4.455541 -0.548005,1.311558 -1.620969,1.843104 -2.425692,1.201478 -0.648893,-0.517366 -0.907399,-2.385459 -0.625284,-4.517554 0.16674,-1.260136 0.473064,-1.855456 1.01441,-1.833996 z"
         id="path100"
         inkscape:connector-curvature="0"
         sodipodi:nodetypes="ccsscccsscccscsssscscccccssssscsscsscssssccscssccccccccsscccssscccssccscccsccsccccsccccccccccscccccssccccccccccccccccccccscccccscccccccccccsccccccsccscccccccscccccssccccccccccscccscscccccsccssccccccccccccccsccccccccccccccccccccccccccccccccccccccccccscccccccscccscccccccscccccccccscccccccccccssccccsccc" />
    </g>
  </g>
</svg>
