<?xml version="1.0" encoding="UTF-8" standalone="no"?>
<svg
   xmlns:dc="http://purl.org/dc/elements/1.1/"
   xmlns:cc="http://creativecommons.org/ns#"
   xmlns:rdf="http://www.w3.org/1999/02/22-rdf-syntax-ns#"
   xmlns:svg="http://www.w3.org/2000/svg"
   xmlns="http://www.w3.org/2000/svg"
   xmlns:xlink="http://www.w3.org/1999/xlink"
   xmlns:sodipodi="http://sodipodi.sourceforge.net/DTD/sodipodi-0.dtd"
   xmlns:inkscape="http://www.inkscape.org/namespaces/inkscape"
   viewBox="0 0 32 32"
   class="wh-messenger-svg-whatsapp wh-svg-icon"
   version="1.1"
   id="svg4"
   sodipodi:docname="phone-icon.svg"
   inkscape:version="0.92.3 (2405546, 2018-03-11)">
  <metadata
     id="metadata10">
    <rdf:RDF>
      <cc:Work
         rdf:about="">
        <dc:format>image/svg+xml</dc:format>
        <dc:type
           rdf:resource="http://purl.org/dc/dcmitype/StillImage" />
        <dc:title />
      </cc:Work>
    </rdf:RDF>
  </metadata>
  <defs
     id="defs8">
    <linearGradient
       inkscape:collect="always"
       id="linearGradient853">
      <stop
         style="stop-color:#37b64a;stop-opacity:1"
         offset="0"
         id="stop849" />
      <stop
         style="stop-color:#5dcc69;stop-opacity:1"
         offset="1"
         id="stop851" />
    </linearGradient>
    <linearGradient
       inkscape:collect="always"
       xlink:href="#linearGradient853"
       id="linearGradient855"
       x1="34.818119"
       y1="44.182148"
       x2="44.759293"
       y2="31.909653"
       gradientUnits="userSpaceOnUse"
       gradientTransform="matrix(1.0426247,0,0,1.0639477,-25.282187,-25.28891)" />
  </defs>
  <sodipodi:namedview
     pagecolor="#ffffff"
     bordercolor="#666666"
     borderopacity="1"
     objecttolerance="10"
     gridtolerance="10"
     guidetolerance="10"
     inkscape:pageopacity="0"
     inkscape:pageshadow="2"
     inkscape:window-width="1021"
     inkscape:window-height="608"
     id="namedview6"
     showgrid="false"
     inkscape:zoom="7.375"
     inkscape:cx="-16.679077"
     inkscape:cy="10.708599"
     inkscape:window-x="0"
     inkscape:window-y="27"
     inkscape:window-maximized="0"
     inkscape:current-layer="svg4"
     inkscape:snap-global="false" />
  <path
     d="m 19.008417,18.601306 c -0.442769,-0.118638 -1.738275,1.307436 -2.250077,1.170299 -0.131842,-0.04133 -0.250252,-0.117097 -0.343032,-0.21948 -0.826361,-0.734248 -1.529553,-1.452077 -2.112994,-2.412095 -0.484107,-0.787976 -0.952597,-1.900884 -1.111695,-2.802051 -0.0313,-0.08968 -0.03763,-0.186162 -0.01832,-0.279183 0.105243,-0.392776 1.479713,-0.809038 1.653522,-1.457714 0.0456,-0.170203 -0.202326,-2.7204011 -0.245594,-3.0445365 C 14.528671,9.0681713 14.480836,8.9086543 14.021412,8.7855482 13.798826,8.7259211 13.606633,8.6195584 13.404294,8.5653419 13.044845,8.469028 12.736795,8.5331896 12.415919,8.70235 11.391335,9.2506298 10.76726,9.9419469 10.432235,11.058977 l -0.03636,0.135694 c -0.333584,1.173547 -0.06872,2.50362 0.323864,3.633189 0.88355,2.558498 1.895201,4.857913 4.0362,6.617982 0.641652,0.538053 2.13892,1.705933 2.956611,1.925032 0.972419,0.260559 2.723244,0.07271 3.369736,-0.778437 0.259971,-0.351321 0.523229,-0.791053 0.637401,-1.217158 0.0185,-0.06903 0.04593,-0.171393 0.03286,-0.265465 -0.06416,-0.236614 -2.453721,-2.430683 -2.744141,-2.508497 z"
     id="path2"
     style="fill:#f9f9f9;fill-rule:evenodd;stroke-width:1"
     inkscape:connector-curvature="0"
     sodipodi:nodetypes="scccccscsscccccscscs" />
</svg>
