<?xml version="1.0" encoding="UTF-8" standalone="no"?>
<svg
   xmlns:dc="http://purl.org/dc/elements/1.1/"
   xmlns:cc="http://creativecommons.org/ns#"
   xmlns:rdf="http://www.w3.org/1999/02/22-rdf-syntax-ns#"
   xmlns:svg="http://www.w3.org/2000/svg"
   xmlns="http://www.w3.org/2000/svg"
   xmlns:xlink="http://www.w3.org/1999/xlink"
   xmlns:sodipodi="http://sodipodi.sourceforge.net/DTD/sodipodi-0.dtd"
   xmlns:inkscape="http://www.inkscape.org/namespaces/inkscape"
   viewBox="0 0 32 32"
   class="wh-messenger-svg-whatsapp wh-svg-icon"
   version="1.1"
   id="svg4"
   sodipodi:docname="whatsapp-icon.svg"
   inkscape:version="0.92.3 (2405546, 2018-03-11)">
  <metadata
     id="metadata10">
    <rdf:RDF>
      <cc:Work
         rdf:about="">
        <dc:format>image/svg+xml</dc:format>
        <dc:type
           rdf:resource="http://purl.org/dc/dcmitype/StillImage" />
        <dc:title></dc:title>
      </cc:Work>
    </rdf:RDF>
  </metadata>
  <defs
     id="defs8">
    <linearGradient
       inkscape:collect="always"
       id="linearGradient853">
      <stop
         style="stop-color:#37b64a;stop-opacity:1"
         offset="0"
         id="stop849" />
      <stop
         style="stop-color:#5dcc69;stop-opacity:1"
         offset="1"
         id="stop851" />
    </linearGradient>
    <linearGradient
       inkscape:collect="always"
       xlink:href="#linearGradient853"
       id="linearGradient855"
       x1="34.818119"
       y1="44.182148"
       x2="44.759293"
       y2="31.909653"
       gradientUnits="userSpaceOnUse"
       gradientTransform="matrix(1.0426247,0,0,1.0639477,-25.282187,-25.28891)" />
  </defs>
  <sodipodi:namedview
     pagecolor="#ffffff"
     bordercolor="#666666"
     borderopacity="1"
     objecttolerance="10"
     gridtolerance="10"
     guidetolerance="10"
     inkscape:pageopacity="0"
     inkscape:pageshadow="2"
     inkscape:window-width="1021"
     inkscape:window-height="608"
     id="namedview6"
     showgrid="false"
     inkscape:zoom="3.6875"
     inkscape:cx="15.67057"
     inkscape:cy="10.708599"
     inkscape:window-x="0"
     inkscape:window-y="27"
     inkscape:window-maximized="0"
     inkscape:current-layer="svg4"
     inkscape:snap-global="false" />
  <path
     id="path42"
     d="m 16.201979,25.373274 c -1.821465,0 -3.628334,-0.563892 -5.152651,-1.585282 l -3.6147801,1.17247 1.1802512,-3.550393 C 7.4504772,19.781088 6.8225898,17.81718 6.8214846,15.800936 c 0,-5.27186 4.2122034,-9.5702092 9.3804944,-9.5702092 5.168291,0 9.381537,4.2972852 9.381537,9.5691452 0,5.275053 -4.212204,9.573402 -9.381537,9.573402 z"
     inkscape:connector-curvature="0"
     style="fill:url(#linearGradient855);fill-opacity:1;fill-rule:evenodd;stroke-width:1"
     sodipodi:nodetypes="sccccsss" />
  <path
     d=" M19.11 17.205c-.372 0-1.088 1.39-1.518 1.39a.63.63 0 0 1-.315-.1c-.802-.402-1.504-.817-2.163-1.447-.545-.516-1.146-1.29-1.46-1.963a.426.426 0 0 1-.073-.215c0-.33.99-.945.99-1.49 0-.143-.73-2.09-.832-2.335-.143-.372-.214-.487-.6-.487-.187 0-.36-.043-.53-.043-.302 0-.53.115-.746.315-.688.645-1.032 1.318-1.06 2.264v.114c-.015.99.472 1.977 1.017 2.78 1.23 1.82 2.506 3.41 4.554 4.34.616.287 2.035.888 2.722.888.817 0 2.15-.515 2.478-1.318.13-.33.244-.73.244-1.088 0-.058 0-.144-.03-.215-.1-.172-2.434-1.39-2.678-1.39zm-2.908 7.593c-1.747 0-3.48-.53-4.942-1.49L7.793 24.41l1.132-3.337a8.955 8.955 0 0 1-1.72-5.272c0-4.955 4.04-8.995 8.997-8.995S25.2 10.845 25.2 15.8c0 4.958-4.04 8.998-8.998 8.998zm0-19.798c-5.96 0-10.8 4.842-10.8 10.8 0 1.964.53 3.898 1.546 5.574L5 27.176l5.974-1.92a10.807 10.807 0 0 0 16.03-9.455c0-5.958-4.842-10.8-10.802-10.8z"
     fill-rule="evenodd"
     id="path2"
     style="fill:#ffffff" />
</svg>
